<svg xmlns="http://www.w3.org/2000/svg" viewBox="0 0 1920 1080" width="100%" height="100%">
  <defs>
    <linearGradient id="bgGrad" x1="0%" y1="0%" x2="0%" y2="100%">
      <stop offset="0%" stop-color="#02050f"/>
      <stop offset="40%" stop-color="#050d24"/>
      <stop offset="80%" stop-color="#0a122c"/>
      <stop offset="100%" stop-color="#01030a"/>
    </linearGradient>
    <radialGradient id="horizonGlow" cx="50%" cy="82%" r="50%">
      <stop offset="0%" stop-color="#ffb703" stop-opacity="0.35"/>
      <stop offset="30%" stop-color="#0052cc" stop-opacity="0.15"/>
      <stop offset="100%" stop-color="#000000" stop-opacity="0"/>
    </radialGradient>
    <linearGradient id="goldGrad" x1="0%" y1="0%" x2="0%" y2="100%">
      <stop offset="0%" stop-color="#ffdf00"/>
      <stop offset="100%" stop-color="#d4af37"/>
    </linearGradient>
    <filter id="neonGlow" x="-30%" y="-30%" width="160%" height="160%">
      <feGaussianBlur stdDeviation="8" result="blur" />
      <feComposite in="SourceGraphic" in2="blur" operator="over" />
    </filter>
  </defs>

  <rect width="1920" height="1080" fill="url(#bgGrad)"/>
  <rect width="1920" height="1080" fill="url(#horizonGlow)"/>

  <g fill="#102a6b" opacity="0.15">
    <rect x="40" y="700" width="20" height="200" />
    <rect x="70" y="650" width="25" height="250" />
    <rect x="105" y="730" width="15" height="170" />
    <rect x="130" y="610" width="30" height="290" />
    <rect x="170" y="680" width="20" height="220" />
    <rect x="200" y="750" width="25" height="150" />
  </g>

  <g fill="#d4af37" opacity="0.12" transform="translate(100, 80) scale(1.1)">
    <path d="M150,150 L200,130 L250,140 L280,180 L250,220 L230,280 L250,330 L220,380 L240,450 L220,520 L190,480 L180,400 L190,320 L150,280 L120,220 Z" />
    <path d="M500,180 L560,150 L620,160 L650,200 L610,250 L580,280 L620,350 L640,420 L610,480 L570,520 L550,450 L560,380 L510,350 L480,260 Z" />
    <path d="M650,200 L750,140 L880,150 L950,180 L920,280 L880,330 L920,400 L850,450 L800,420 L750,320 L700,280 Z" />
    <path d="M850,480 L900,470 L920,520 L860,540 Z" />
  </g>

  <g stroke="#ffdf00" stroke-width="0.8" opacity="0.25" fill="none">
    <path d="M250,250 Q500,100 750,220" />
    <path d="M250,250 Q600,350 920,250" stroke="#0052cc" stroke-width="1.2" />
    <path d="M750,220 Q900,120 1100,280" />
    <path d="M580,320 Q850,450 1100,280" />
    <path d="M300,450 Q600,550 850,480" stroke="#0052cc" />
    <path d="M150,200 Q700,50 1150,200" />
  </g>

  <g fill="url(#goldGrad)" filter="url(#neonGlow)" opacity="0.7">
    <circle cx="280" cy="200" r="5" />
    <circle cx="560" cy="160" r="4" fill="#fff" />
    <circle cx="750" cy="220" r="6" />
    <circle cx="920" cy="250" r="5" />
    <circle cx="610" cy="380" r="4" />
    <circle cx="1100" cy="280" r="5" />
  </g>

  <path d="M 0,1080 Q 960,780 1920,1080 Z" fill="#040b1e" opacity="0.95"/>
  <path d="M 0,1080 Q 960,780 1920,1080" fill="none" stroke="url(#goldGrad)" stroke-width="3" filter="url(#neonGlow)" opacity="0.8"/>
  <circle cx="960" cy="800" r="40" fill="#ffffff" filter="url(#neonGlow)" opacity="0.9"/>
  <circle cx="960" cy="800" r="10" fill="#ffffff"/>

  <g fill="url(#goldGrad)" stroke="url(#goldGrad)" stroke-width="2">
    <line x1="950" y1="730" x2="950" y2="765" />
    <rect x="943" y="735" width="14" height="20" />
    <line x1="1020" y1="680" x2="1020" y2="725" />
    <rect x="1013" y="690" width="14" height="25" />
    <line x1="1090" y1="640" x2="1090" y2="695" />
    <rect x="1083" y="645" width="14" height="35" />
    <line x1="1160" y1="580" x2="1160" y2="650" />
    <rect x="1153" y="595" width="14" height="40" filter="url(#neonGlow)" />
    <line x1="1230" y1="530" x2="1230" y2="610" />
    <rect x="1223" y="545" width="14" height="50" />
    <line x1="1300" y1="460" x2="1300" y2="560" />
    <rect x="1293" y="480" width="14" height="60" />
    <line x1="1370" y1="410" x2="1370" y2="500" />
    <rect x="1363" y="430" width="14" height="55" filter="url(#neonGlow)" />
    <line x1="1440" y1="350" x2="1440" y2="440" />
    <rect x="1433" y="365" width="14" height="60" />
    <line x1="1510" y1="280" x2="1510" y2="390" />
    <rect x="1503" y="300" width="14" height="70" />
    <line x1="1580" y1="210" x2="1580" y2="320" />
    <rect x="1573" y="230" width="14" height="75" filter="url(#neonGlow)" />
    <line x1="1650" y1="150" x2="1650" y2="250" />
    <rect x="1643" y="165" width="14" height="70" />
    <line x1="1720" y1="80" x2="1720" y2="190" />
    <rect x="1713" y="100" width="14" height="80" filter="url(#neonGlow)" />
  </g>

  <path d="M 950,755 L 1020,705 L 1090,665 L 1160,615 L 1230,570 L 1300,510 L 1370,460 L 1440,395 L 1510,335 L 1580,270 L 1650,200 L 1720,140" fill="none" stroke="#fffb00" stroke-width="3" filter="url(#neonGlow)"/>

  <g fill="#ffffff" filter="url(#neonGlow)">
    <circle cx="1160" cy="615" r="4" />
    <circle cx="1440" cy="395" r="4" />
    <circle cx="1720" cy="140" r="5" />
  </g>
</svg>
